<?xml version="1.0" standalone="no"?>
<!DOCTYPE svg PUBLIC "-//W3C//DTD SVG 1.1//EN" "http://www.w3.org/Graphics/SVG/1.1/DTD/svg11.dtd" >
<svg xmlns="http://www.w3.org/2000/svg" xmlns:xlink="http://www.w3.org/1999/xlink" version="1.1">
<metadata></metadata>
<defs>
<font id="nanumgothiccodingbold" horiz-adv-x="1024" >
<font-face units-per-em="2048" ascent="1638" descent="-410" />
<missing-glyph horiz-adv-x="500" />
<glyph horiz-adv-x="0" />
<glyph horiz-adv-x="682" />
<glyph />
<glyph unicode=" " />
<glyph />
<glyph />
<glyph />
<glyph />
<glyph />
<glyph />
<glyph />
<glyph />
<glyph />
<glyph />
<glyph />
<glyph />
<glyph />
<glyph />
<glyph />
<glyph />
<glyph />
<glyph />
<glyph unicode="&#xd;" />
<glyph />
<glyph />
<glyph unicode="&#xa;" />
<glyph unicode="&#x9;" />
<glyph />
<glyph />
<glyph />
<glyph />
<glyph />
<glyph />
<glyph />
<glyph />
<glyph unicode="!" d="M367 14q0 59 41 102.5t102 43.5t103 -43t42 -103q0 -59 -42 -101t-103 -42t-102 42t-41 101zM381 1260q-2 43 4 51t35 8h182q29 0 34 -8t3 -51l-29 -938v-25q-2 -4 -2 -6t-2 -4q-4 -4 -31 -4h-151q-8 0 -8 4q-6 6 -6 35z" />
<glyph unicode="&#x22;" d="M238 987v432q0 25 24 25h148q27 0 26 -25v-432q0 -25 -26 -24h-148q-25 0 -24 24zM586 987v432q0 25 26 25h148q25 0 24 -25v-432q0 -25 -24 -24h-148q-27 0 -26 24z" />
<glyph unicode="#" d="M29 328v118q0 27 6 32t37 5h164l43 295h-138q-33 0 -38 6.5t-5 34.5v111q0 29 5.5 35t37.5 6h162l49 340q4 23 9.5 26.5t29.5 3.5h127q25 0 30 -8t1 -28l-45 -334h127l47 336q4 27 11 30.5t38 3.5h100q41 0 47.5 -7t2.5 -34l-46 -329h121q29 0 36 -5t7 -32v-117 q0 -27 -7 -33t-36 -6h-149l-39 -295h115q31 0 38 -5t7 -34v-112q0 -29 -6.5 -34t-38.5 -5h-142l-47 -342q-4 -23 -9 -27t-32 -4h-129q-25 0 -29 5t-2 26l48 342h-127l-45 -338q-4 -27 -12.5 -31t-37.5 -4h-102q-41 0 -48 4t-3 31l47 338h-137q-31 0 -37 4t-6 31zM436 483 h127l39 295h-125z" />
<glyph unicode="$" d="M88 961q0 63 23.5 121.5t66.5 107.5t103.5 86t136.5 53v141q0 8 7 15.5t15 7.5h148q8 0 15 -7t7 -16v-127q76 -4 130.5 -16t93.5 -27q23 -6 26.5 -14t-0.5 -20l-26 -138q-2 -20 -10.5 -27t-30.5 -1q-39 14 -87.5 25.5t-95.5 15.5v-457q96 -61 160 -110.5t99.5 -96.5 t50 -95t14.5 -101q0 -158 -115 -283q-41 -39 -93 -68.5t-116 -48.5v-147q0 -23 -22 -23h-148q-23 0 -22 23v127q-88 4 -171 22.5t-116 34.5q-29 14 -35 19.5t-2 25.5l15 158q2 14 9 17t27 -7q18 -8 48 -17.5t66 -17.5t78 -14t81 -6v483q-172 102 -251 192.5t-79 209.5z M307 954q0 -35 23.5 -74.5t87.5 -80.5v315q-63 -29 -87 -74t-24 -86zM610 113q51 23 79 66.5t28 84.5q0 59 -27.5 98t-79.5 78v-327z" />
<glyph unicode="%" d="M32 415.5q3 12.5 21 24.5l793 521q31 25 53 -9l64 -96q23 -33 -13 -55l-790 -520q-16 -12 -29 -12.5t-27 22.5l-61 92q-14 20 -11 32.5zM53 1122q0 143 82 230.5t213 87.5t213 -87t82 -231q0 -143 -82 -229t-213 -86t-213 86t-82 229zM219 1120q0 -72 35 -107.5t94 -35.5 t94 36t35 107q0 72 -34.5 109t-94.5 37q-59 0 -94 -37t-35 -109zM391 121q0 143 82 230t213 87t213 -87t82 -230t-82 -229.5t-213 -86.5t-213 86.5t-82 229.5zM557 119q0 -72 35 -108t94 -36t94 36t35 108t-35 108.5t-94 36.5t-94 -36.5t-35 -108.5z" />
<glyph unicode="&#x26;" d="M29 295q0 139 60.5 240.5t162.5 171.5q-43 70 -76 147.5t-33 167.5q0 78 28 142.5t72 106.5t99 63.5t113 21.5q53 2 104 -20.5t89 -62.5t61.5 -99.5t23.5 -141.5q0 -109 -55 -206t-174 -177l211 -299q29 63 42 141t13 162q2 23 5 29t22 6h110q20 0 23.5 -6t3.5 -31 q2 -57 -6 -119.5t-22.5 -124t-35 -112.5t-47.5 -98l176 -250q14 -18 11.5 -28.5t-25.5 -10.5h-137q-16 0 -25.5 2t-19.5 16l-82 115q-133 -164 -322 -164q-70 0 -138 26.5t-118.5 78t-82 129t-31.5 184.5zM233 303q0 -43 10.5 -84t35 -73.5t55.5 -48t72 -17.5 q63 0 117.5 32.5t90.5 77.5l-258 367q-29 -23 -49 -46.5t-38.5 -54t-28 -74.5t-7.5 -79zM319 1014q0 -33 14.5 -92.5t67.5 -126.5q31 18 54.5 37.5t45 43t34 57.5t12.5 81q0 57 -24.5 99t-73.5 42q-61 0 -95.5 -42t-34.5 -99z" />
<glyph unicode="'" d="M393 987v434q0 10 7.5 17.5t17.5 7.5h186q10 0 17.5 -7t7.5 -18v-434q0 -10 -7.5 -17t-17.5 -7h-186q-10 0 -17.5 7t-7.5 17z" />
<glyph unicode="(" d="M225 618q0 258 87 501t280 483q12 18 29 18h151q27 0 12 -23q-164 -258 -241.5 -498.5t-77.5 -480.5q0 -242 76.5 -481t242.5 -497q6 -8 4 -15.5t-16 -7.5h-151q-16 0 -29 18q-193 238 -280 480.5t-87 502.5z" />
<glyph unicode=")" d="M235.5 -376q-2.5 7 4.5 16q166 258 242.5 497.5t76.5 480.5q0 240 -78 480.5t-241 498.5q-14 23 12 23h151q16 0 29 -18q193 -240 280 -482.5t87 -501.5q0 -260 -87 -502.5t-280 -480.5q-12 -18 -29 -18h-151q-14 0 -16.5 7z" />
<glyph unicode="*" d="M92 723.5q-6 11.5 10 54.5l33 90q8 23 15.5 35t14.5 15.5t19.5 -1t30.5 -12.5l205 -90l-14 223q-2 23 -1 36t6 19.5t18 7.5t36 1h94q25 0 39 -2t20.5 -8.5t6.5 -18.5t-2 -35l-17 -223l207 84q20 8 32.5 11t19.5 0t12.5 -15t13.5 -33l29 -90q16 -47 9 -58.5t-48 -21.5 l-219 -53l141 -162q29 -35 27.5 -47t-35.5 -39l-76 -57q-41 -33 -53.5 -31t-34.5 41l-113 188l-125 -190q-25 -39 -36 -42t-50 24l-76 57q-41 27 -42 40t28 48l139 170l-215 61q-43 12 -49 23.5z" />
<glyph unicode="+" d="M18 557v160q0 10 7.5 17t17.5 7h363v410q0 10 7 17.5t17 7.5h168q10 0 17.5 -7.5t7.5 -17.5v-410h360q25 0 25 -24v-160q0 -25 -25 -25h-360v-411q0 -25 -25 -25h-168q-25 0 -24 25v411h-363q-10 0 -17.5 7.5t-7.5 17.5z" />
<glyph unicode="," d="M244 -365l205 373q6 10 14 21.5t31 11.5h198q27 0 30 -13.5t-5 -25.5l-246 -367q-10 -16 -20.5 -21t-24.5 -5h-164q-10 0 -17 7t-1 19z" />
<glyph unicode="-" d="M115 555v164q0 10 8 17t18 7h742q12 0 19 -7t7 -17v-164q0 -10 -7 -17.5t-19 -7.5h-742q-10 0 -18 7.5t-8 17.5z" />
<glyph unicode="." d="M338 -80q0 72 51 122t123 50t122 -50t50 -122t-50 -123t-122 -51t-123 51t-51 123z" />
<glyph unicode="/" d="M129 -150l530 1551q8 23 33 22h162q47 0 35 -41l-529 -1546q-8 -18 -19.5 -23.5t-27.5 -5.5h-147q-23 0 -34 9.5t-3 33.5z" />
<glyph unicode="0" d="M78 608q0 66 15.5 205t64.5 256t134 192.5t222 75.5q88 0 156.5 -34.5t117 -95t79 -139.5t49 -167t24.5 -179t6 -114q0 -125 -26.5 -272.5t-80 -248.5t-133 -154.5t-192.5 -53.5q-223 0 -329.5 208t-106.5 521zM287 608q0 -98 15 -207.5t46 -177t73 -98.5t91 -31 q47 0 89 31t73 98.5t46 177t15 207.5q0 96 -15 206t-46 177.5t-73 98t-89 30.5q-49 0 -91 -30.5t-73 -98t-46 -177t-15 -206.5zM422 442v361q0 27 27 26h124q27 0 27 -26v-361q0 -26 -27 -26h-124q-27 0 -27 26z" />
<glyph unicode="1" d="M181 996.5q1 11.5 12 21.5l313 289q4 4 14 8t17 4h108q35 0 42 -7t7 -48v-1348q0 -27 -26 -27h-164q-29 0 -29 27v1085l-151 -131q-10 -8 -23.5 -10t-21.5 6l-93 111q-6 8 -5 19.5z" />
<glyph unicode="2" d="M90 35q0 16 9.5 30.5t21.5 30.5l276 342q156 203 217.5 309.5t61.5 184.5q0 74 -45 133t-144 59q-76 0 -137 -23.5t-131 -76.5q-16 -10 -32.5 -9t-20.5 17l-29 158q-4 10 2 19.5t27 21.5q63 43 142 75.5t167 32.5q98 0 170 -26.5t131.5 -80.5t94 -135t34.5 -159 q0 -84 -39 -165t-82 -148.5t-99 -147.5t-126 -168l-166 -211h514q29 0 29 -30v-150q0 -31 -29 -31h-778q-39 0 -39 25v123z" />
<glyph unicode="3" d="M96 -31l17 160q2 16 12 22.5t35 -4.5q57 -23 102 -32t105 -17q78 -8 115.5 -2t72.5 18.5t63 35.5q88 63 89 167q0 43 -15.5 79t-55.5 71t-97.5 50t-137.5 15h-82q-16 0 -20 4.5t-4 20.5v148q0 25 4 28.5t20 3.5h78q59 0 103.5 12.5t93.5 40t74.5 71.5t25.5 97 q0 39 -23.5 75t-59.5 57.5t-80 29.5t-80 8q-37 0 -82 -9t-83 -25.5t-73 -32.5q-23 -10 -32 -5t-13 21l-16 154q-4 12 1 21.5t27 17.5q82 35 156 52t133 17q84 0 166 -20.5t144.5 -64.5t101.5 -113.5t39 -165.5q0 -47 -9.5 -93t-43 -98.5t-80 -87t-99.5 -57.5 q121 -37 186.5 -120t65.5 -206q0 -86 -37.5 -174t-111.5 -147q-70 -63 -171.5 -91t-189.5 -28q-59 0 -146 15.5t-155 41.5q-20 6 -27.5 14.5t-5.5 24.5z" />
<glyph unicode="4" d="M37 262v189q0 16 6 30.5t14 28.5l480 782q12 16 17 21.5t26 5.5h186q16 0 18 -6t2 -25v-839h170q18 0 24.5 -5.5t6.5 -25.5v-150q0 -20 -6 -25t-25 -5h-170v-312q0 -23 -6 -30t-28 -7h-144q-23 0 -30 8.5t-7 28.5v312h-501q-20 0 -26.5 4t-6.5 20zM242 449h329v540z" />
<glyph unicode="5" d="M119 -37v168q0 35 43 16q39 -16 75.5 -27t68.5 -17.5t66 -10.5t66 -4q119 0 183.5 70.5t64.5 181.5q0 106 -63.5 178t-169.5 76q-47 0 -113 -13.5t-131 -35.5q-80 -31 -80 33l10 710q2 20 8.5 25.5t36.5 5.5h650q12 0 17 -7t5 -18v-164q0 -8 -5 -16t-17 -8h-469l-9 -332 q70 18 150 19q70 0 147.5 -30t137 -85t93.5 -134t34 -177q-1 -238 -142 -369q-66 -63 -155 -93t-187 -30q-25 0 -55.5 2t-72.5 8t-90 17.5t-81 25.5q-14 8 -15 15.5t-1 19.5z" />
<glyph unicode="6" d="M82 559q0 158 30.5 300t102.5 247.5t181.5 168t252.5 62.5q53 0 117.5 -9t107.5 -25q16 -4 15 -25l-6 -174q-2 -27 -29 -17q-47 20 -103.5 29.5t-115.5 9.5q-70 -2 -131.5 -35.5t-101.5 -92t-62.5 -127t-30.5 -160.5q18 35 53 63.5t82.5 45t102.5 16.5q76 0 147.5 -35 t127 -97.5t87 -148.5t31.5 -193q0 -102 -30.5 -192t-90 -155.5t-137.5 -103.5t-174 -38q-195 0 -310.5 167t-115.5 519zM315 358q0 -51 11.5 -97t40 -93t68.5 -69.5t79 -22.5q109 0 159 86t50 180q0 121 -58.5 202t-136.5 81q-94 0 -153.5 -81t-59.5 -186z" />
<glyph unicode="7" d="M109 1143v143q0 33 34 33h719q35 0 42 -7t7 -30v-125q0 -16 -10 -33l-465 -1206q-8 -16 -16 -22.5t-29 -6.5h-162q-31 0 -39 7.5t0 29.5l459 1182h-506q-14 0 -24 9t-10 26z" />
<glyph unicode="8" d="M59 279q0 70 22.5 123t58.5 96t85 76.5t103 62.5q-106 63 -169 149t-63 193q0 80 33 145.5t89 112.5t133 73.5t161 26.5q88 0 165 -24.5t131 -69.5t85 -110.5t31 -147.5q0 -96 -55.5 -179t-172.5 -169q61 -39 112.5 -76t86.5 -79t53.5 -91t18.5 -112q0 -94 -38 -170 t-101.5 -130.5t-146.5 -80t-169 -25.5q-78 0 -160 25.5t-146.5 80t-105.5 130t-41 170.5zM293 279q0 -33 19.5 -73t50 -67.5t71.5 -43t78 -15.5q39 0 81 14.5t70.5 42t48 67.5t19.5 75t-19.5 71.5t-49 68.5t-70.5 60.5t-78 44.5q-29 -12 -71 -33.5t-76.5 -51t-54 -66.5 t-19.5 -94zM328 961q0 -41 20.5 -74t53 -63.5t62.5 -53t50 -31.5q20 10 51 36t62.5 57.5t49 65.5t17.5 67q0 29 -12 60.5t-38 57t-60.5 40t-71.5 14.5q-31 0 -65.5 -13.5t-60.5 -38t-42 -57.5t-16 -67z" />
<glyph unicode="9" d="M84 848q0 102 30.5 192t90 156t137.5 103.5t174 37.5q195 0 310.5 -166.5t115.5 -519.5q0 -158 -30.5 -300t-102.5 -247.5t-181.5 -168t-252.5 -62.5q-53 0 -117.5 9t-107.5 26q-16 4 -15 24l6 174q2 27 29 17q47 -20 103.5 -29.5t115.5 -9.5q70 2 131.5 36t101.5 92 t62.5 127t30.5 161q-18 -35 -53 -63.5t-82.5 -45t-102.5 -16.5q-76 0 -147.5 34.5t-127 97t-87 148.5t-31.5 193zM301 868q0 -121 58.5 -201.5t136.5 -80.5q94 0 153.5 81t59.5 185q0 51 -11.5 97t-40 93.5t-68.5 70t-79 22.5q-109 0 -159 -86t-50 -181z" />
<glyph unicode=":" d="M354 201q0 61 46 107t112 46t111 -46t45 -107q0 -63 -45 -109.5t-111 -46.5t-112 46t-46 110zM354 1008q0 63 46 109t112 46t111 -46t45 -109q0 -61 -45 -107.5t-111 -46.5t-112 46t-46 108z" />
<glyph unicode=";" d="M233 -158l218 402q6 10 14 21t31 11h198q27 0 30 -13t-5 -25l-258 -396q-10 -16 -20.5 -21t-24.5 -5h-164q-10 0 -17.5 7t-1.5 19zM389 1010q0 63 46 109t108 46q66 0 111.5 -46t45.5 -109q0 -61 -45.5 -107.5t-111.5 -46.5q-61 0 -107.5 46t-46.5 108z" />
<glyph unicode="&#x3c;" d="M74 569v95q0 33 4 43t24 30l809 842q27 29 33 27t6 -43v-195q0 -20 -1 -32.5t-4 -20.5t-11 -17.5t-21 -23.5l-596 -623q-16 -16 -15 -28.5t20 -32.5l591 -631q14 -16 21.5 -24.5t10.5 -17.5t4 -20.5t1 -31.5v-195q0 -41 -6 -43t-33 27l-809 842q-20 20 -24 30.5t-4 42.5z " />
<glyph unicode="=" d="M29 342v162q0 10 7 17t17 7h918q10 0 17 -7t7 -17v-162q0 -10 -7 -17.5t-17 -7.5h-918q-10 0 -17 7.5t-7 17.5zM29 768v162q0 10 7 17t17 7h918q10 0 17 -7t7 -17v-162q0 -10 -7 -17.5t-17 -7.5h-918q-10 0 -17 7.5t-7 17.5z" />
<glyph unicode="&#x3e;" d="M74 -135q0 20 1 32.5t4 20.5t11 17.5t21 23.5l591 631q18 20 19.5 32.5t-14.5 28.5l-596 623q-14 14 -21.5 23.5t-10.5 18.5t-4 20.5t-1 31.5v195q0 41 6 43t33 -27l809 -842q20 -20 24 -30.5t4 -42.5v-95q0 -33 -4 -43t-24 -30l-809 -842q-27 -29 -33 -27t-6 43v195z " />
<glyph unicode="?" d="M131 1137v172q0 18 23 26q35 12 76.5 22.5t83.5 17.5t83 11.5t72 4.5q90 0 168 -27t134 -76t88 -112.5t32 -137.5q0 -92 -20.5 -152.5t-55.5 -109.5q-57 -76 -104 -129t-82 -102q-35 -47 -53.5 -106.5t-18.5 -131.5q0 -35 -35 -35h-151q-16 0 -23.5 5.5t-7.5 25.5 q0 59 12.5 120.5t32.5 104.5q23 47 54.5 94.5t82.5 106.5q55 61 99.5 127t44.5 137q0 102 -63.5 143.5t-153.5 41.5q-78 0 -140.5 -13.5t-134.5 -42.5q-43 -23 -43 15zM295 25q0 59 41 102t102 43t103.5 -43t42.5 -102t-42.5 -101.5t-103.5 -42.5t-102 42t-41 102z" />
<glyph unicode="@" d="M27 604q0 147 32.5 278.5t96.5 235.5q63 113 156.5 173.5t205.5 60.5q100 0 188.5 -48.5t155 -134.5t102 -201.5t35.5 -248.5q0 -96 -31.5 -207t-86.5 -199q-47 -74 -99.5 -109.5t-105.5 -35.5q-35 0 -63.5 31.5t-30.5 81.5q-31 -49 -76 -83t-84 -34q-45 0 -80 24.5 t-58.5 67.5t-35.5 100.5t-12 124.5q0 100 22.5 196.5t64.5 171.5t98 122t122 47q41 0 78.5 -28.5t54.5 -82.5l14 80h111q-53 92 -129 135t-154 43t-142.5 -46t-109.5 -128t-69.5 -182t-24.5 -201q0 -135 25.5 -233.5t70.5 -171t108.5 -117.5t151.5 -45q98 0 167 42t108 124 h164q-61 -166 -178 -259t-271 -93q-104 0 -193 57t-156 158.5t-104.5 238.5t-37.5 295zM381 502q0 -86 18.5 -119t40.5 -33q37 0 69 38t54.5 91t35.5 116.5t13 115.5q0 59 -17 89.5t-54 30.5t-67 -36.5t-51.5 -83.5t-31.5 -109.5t-10 -99.5zM696 380q2 -7 9 -9q14 -8 36.5 7 t59.5 87q29 68 42 127t17 127q0 74 -10 129t-33 108q-39 -168 -66.5 -289.5t-43.5 -201.5q-8 -41 -10.5 -59.5t-0.5 -25.5z" />
<glyph unicode="A" d="M33 -68l352 1364q6 16 9 19.5t24 3.5h190q18 0 22.5 -3t10.5 -20l352 -1364q10 -35 -24 -34h-162q-12 0 -18.5 5t-12.5 29l-84 355h-358l-84 -355q-4 -29 -10.5 -31.5t-20.5 -2.5h-162q-37 0 -24 34zM383 502h258l-129 567z" />
<glyph unicode="B" d="M141 -82v1372q0 29 25 29h307q188 0 306 -97.5t118 -263.5q0 -94 -45 -180t-129 -135q53 -23 93 -59.5t66.5 -83.5t40 -94.5t13.5 -77.5q0 -199 -137 -314.5t-353 -115.5h-280q-25 0 -25 20zM365 113h96q106 0 176 49t70 155t-70 158.5t-176 52.5h-96v-415zM365 739h102 q100 0 152.5 50.5t52.5 140.5q0 68 -48.5 121t-144.5 53h-114v-365z" />
<glyph unicode="C" d="M111 612q0 141 37.5 276.5t110.5 236t178.5 157.5t211.5 57q49 0 105.5 -9t113.5 -32q16 -6 19.5 -14t1.5 -29l-2 -155q0 -29 -8.5 -30t-28.5 7q-94 47 -201 47q-72 0 -133 -40t-100 -116.5t-59.5 -172t-20.5 -183.5t22.5 -185t61.5 -173t104.5 -119t130.5 -43 q47 0 95.5 10.5t99.5 30.5q20 10 26.5 6t6.5 -16l6 -158q2 -18 -2.5 -27.5t-20.5 -15.5q-47 -16 -99 -30.5t-118 -14.5q-106 0 -210.5 56.5t-178.5 162t-111.5 240.5t-37.5 276z" />
<glyph unicode="D" d="M111 -55v1321q0 39 5 46t34 7h268q276 0 420 -225q63 -98 95 -197.5t32 -284.5q0 -190 -49.5 -315t-141.5 -223q-41 -45 -85 -78t-94 -54.5t-107.5 -32.5t-143.5 -11h-197q-27 0 -31.5 8t-4.5 39zM338 117h68q66 0 119 29.5t104 95.5q53 70 81.5 148.5t28.5 230.5 q0 123 -15 187t-50 132q-76 162 -225 162h-111v-985z" />
<glyph unicode="E" d="M139 -43v1307q0 41 7.5 48t46.5 7h661q23 0 27 -7t4 -26v-147q0 -20 -6.5 -27.5t-24.5 -7.5h-489v-371h462q31 0 31 -33v-147q0 -35 -31 -35h-462v-405h514q29 0 28 -35v-148q0 -33 -28 -32h-682q-41 0 -49.5 7t-8.5 52z" />
<glyph unicode="F" d="M147 -72v1354q0 23 8.5 30t24.5 7h690q10 0 17.5 -7t7.5 -18v-161q0 -29 -25 -29h-495v-365h467q27 0 26 -24v-166q0 -25 -26 -25h-467v-596q0 -31 -29 -30h-168q-31 0 -31 30z" />
<glyph unicode="G" d="M63 606q0 143 38 274.5t110 238t167 165.5t208 62q68 0 139.5 -12.5t130.5 -39.5q14 -6 17.5 -13t0.5 -15l-16 -170q-2 -14 -7 -20.5t-20 1.5q-61 27 -120.5 39t-124.5 12q-55 0 -113.5 -43t-98.5 -119.5t-62.5 -167.5t-22.5 -192q0 -109 22.5 -203t63.5 -168.5 t89 -112.5t122 -38q33 0 66.5 8t35.5 25v352h-217q-8 0 -12 7t-4 18v161q0 12 5 20.5t13 8.5h397q18 0 24.5 -10t6.5 -41v-615q0 -31 -8.5 -47t-18.5 -26q-27 -18 -60.5 -31.5t-75.5 -24t-81 -15.5t-71 -5q-104 0 -199.5 53t-169.5 155.5t-114 237t-40 291.5z" />
<glyph unicode="H" d="M117 -78v1372q0 10 7 17.5t17 7.5h178q10 0 17.5 -7t7.5 -18v-553h334v553q0 10 7 17.5t17 7.5h179q10 0 17 -7t7 -18v-1372q0 -10 -7 -17t-17 -7h-179q-25 0 -24 24v604h-334v-604q0 -25 -25 -24h-178q-10 0 -17 7t-7 17z" />
<glyph unicode="I" d="M156 -76v164q0 10 7 17.5t17 7.5h215v991h-184q-10 0 -17.5 7t-7.5 19v164q0 10 7.5 17.5t17.5 7.5h600q10 0 17.5 -7t7.5 -18v-164q0 -27 -25 -26h-184v-991h215q10 0 17 -7.5t7 -17.5v-164q0 -27 -24 -26h-662q-10 0 -17 7t-7 19z" />
<glyph unicode="J" d="M125 342v49q0 27 25 27h184q10 0 17 -9.5t7 -19.5v-63q0 -147 36 -189.5t102 -42.5q63 0 102 48t39 175v787h-358q-10 0 -17.5 7t-7.5 19v164q0 10 7 17.5t18 7.5h563q10 0 18 -7t8 -18v-966q0 -252 -100 -350.5t-274 -98.5t-271.5 98.5t-97.5 364.5z" />
<glyph unicode="K" d="M143 -78v1374q0 23 19 23h188q18 0 19 -23v-612l47 82l327 537q12 16 25 16h211q20 0 21 -7t-7 -18l-362 -565l348 -805q14 -27 -14 -26h-183q-18 0 -25 5t-18 21l-243 604l-127 -186v-420q0 -25 -19 -24h-188q-18 0 -19 24z" />
<glyph unicode="L" d="M158 -78v1372q0 10 7 17.5t17 7.5h183q10 0 17 -7t7 -18v-1181h492q25 0 24 -27v-164q0 -10 -7 -17t-17 -7h-699q-10 0 -17 7t-7 17z" />
<glyph unicode="M" d="M94 -80v1356q0 29 6 36t39 7h240q14 0 17 -5t10 -20l90 -686l18 -211l16 211l84 686q6 14 9.5 19.5t17.5 5.5h244q33 0 39 -7t6 -36v-1356q0 -23 -25 -22h-157q-16 0 -20.5 5t-4.5 17l18 938v172l-20 -172l-103 -790q-4 -10 -9 -12.5t-25 -2.5h-131q-20 0 -25.5 2 t-9.5 13l-115 790l-20 172v-172l18 -938q0 -12 -4 -17t-21 -5h-157q-25 0 -25 22z" />
<glyph unicode="N" d="M119 1280q0 25 8 32t31 7h178q16 0 24.5 -5t20.5 -28l283 -868l41 -160v150v878q0 20 6 26.5t26 6.5h140q20 0 25 -6t5 -27v-1349q0 -25 -7 -32t-30 -7h-178q-16 0 -24.5 6t-20.5 26l-282 869l-41 159v-149v-879q0 -20 -6.5 -26t-26.5 -6h-139q-16 0 -24.5 6t-8.5 1376z " />
<glyph unicode="O" d="M86 602q0 68 15.5 208t63.5 260t131 195.5t218 75.5q86 0 153.5 -35.5t114.5 -96t77 -140.5t48.5 -170t24.5 -182t6 -115q0 -127 -26.5 -276.5t-79 -252t-130 -156.5t-188.5 -54q-219 0 -323.5 211t-104.5 528zM295 602q0 -100 15.5 -210.5t44 -179.5t68.5 -100.5 t89 -31.5q47 0 87 31.5t68.5 100.5t44 179.5t15.5 210.5q0 98 -15.5 209t-44 179.5t-68.5 100t-87 31.5q-49 0 -89 -31.5t-68.5 -100t-44 -179.5t-15.5 -209z" />
<glyph unicode="P" d="M133 -76v1370q0 10 7 17.5t18 7.5h301q227 0 359 -110.5t132 -323.5q0 -113 -38 -190t-106.5 -135t-161.5 -88t-204 -30h-82v-518q0 -27 -26 -26h-174q-25 0 -25 26zM358 655h88q129 0 202 59.5t73 172.5q0 117 -63.5 167t-165.5 50h-134v-449z" />
<glyph unicode="Q" d="M86 602q0 68 15.5 208t63.5 260t131 195.5t218 75.5q86 0 153.5 -35.5t114.5 -96t77 -140.5t48.5 -170t24.5 -182t6 -115q0 -127 -26.5 -276.5t-80.5 -251.5q-49 -96 -120 -150l270 -264q27 -29 18.5 -39t-36.5 -10h-187q-29 0 -37 3t-20 15l-207 234q-217 2 -321.5 212 t-104.5 527zM295 602q0 -100 15.5 -210.5t44 -179.5t68.5 -100.5t89 -31.5q47 0 87 31.5t68.5 100.5t44 179.5t15.5 210.5q0 98 -15.5 209t-44 179.5t-68.5 100t-87 31.5q-49 0 -89 -31.5t-68.5 -100t-44 -179.5t-15.5 -209z" />
<glyph unicode="R" d="M115 -80v1376q0 10 7 16.5t17 6.5h305q225 0 346 -120t121 -308q0 -137 -62.5 -236.5t-168.5 -148.5l321 -584q16 -25 -22 -24h-176q-23 0 -31 2t-18 16l-285 541h-129v-537q0 -23 -27 -22h-174q-25 0 -24 22zM340 670h100q115 0 178.5 54t63.5 165q0 113 -59.5 164 t-155.5 51h-127v-434z" />
<glyph unicode="S" d="M119 -37l14 141q4 14 11.5 18.5t31.5 -5.5q20 -8 66.5 -22.5t98.5 -23t97 -10.5h14l76 9q86 16 127 67t41 123q0 70 -51 128t-117 104q-88 59 -170 115.5t-135 112.5t-78.5 113.5t-25.5 127.5q0 74 37 143.5t98 123.5t136 82.5t177 28.5q84 0 151.5 -13t117.5 -28 q23 -10 25.5 -17t0.5 -24l-24 -131q-6 -18 -15.5 -26t-34.5 0q-31 6 -63.5 15t-66 15.5t-64.5 8.5t-59 0q-92 -12 -138.5 -63.5t-46.5 -127.5q0 -49 41 -100t141 -117q115 -76 191 -131t123 -107.5t64.5 -104.5t17.5 -114q0 -165 -119 -282q-53 -51 -134 -88t-151 -41 q-28 -2 -56 -2q-21 0 -41 1q-48 3 -103.5 13t-99.5 20.5t-66 20.5q-31 12 -37 18.5t-2 28.5z" />
<glyph unicode="T" d="M49 1130v164q0 10 7 17.5t18 7.5h876q10 0 17.5 -7t7.5 -18v-164q0 -27 -25 -26h-323v-1182q0 -25 -25 -24h-182q-25 0 -25 24v1182h-321q-10 0 -17.5 7t-7.5 19z" />
<glyph unicode="U" d="M100 453v835q0 10 6.5 20.5t12.5 10.5h198q6 0 10.5 -8t4.5 -19v-839q0 -203 40 -284t140 -81t141 81t41 284v839q0 10 4 18.5t13 8.5h196q6 0 12.5 -10.5t6.5 -20.5v-835q0 -152 -31.5 -270.5t-99.5 -196.5q-117 -119 -283 -119t-283 119q-70 78 -99.5 195.5 t-29.5 271.5z" />
<glyph unicode="V" d="M63 1290q-4 14 0.5 21.5t32.5 7.5h166q16 0 22.5 -3t10.5 -18l149 -741l66 -346l65 344l150 743q6 14 12 17.5t23 3.5h166q27 0 32 -7t0 -22l-296 -1370q-6 -16 -12.5 -19t-20.5 -3h-232q-14 0 -20 3t-12 19z" />
<glyph unicode="W" d="M43 1290q-4 14 0 21.5t31 7.5h135q14 0 20.5 -3t10.5 -18l57 -872l8 -199l14 199l62 729q4 14 11 17.5t22 3.5h192q14 0 21.5 -3.5t11.5 -17.5l61 -729l15 -199l8 199l57 872q4 14 10.5 17.5t20.5 3.5h137q27 0 31 -7t0 -22l-125 -1370q-4 -16 -10.5 -19t-22.5 -3h-207 q-16 0 -22 3t-10 19l-60 748l-12 186l-12 -186l-60 -748q-4 -16 -9 -19t-23 -3h-207q-16 0 -22.5 3t-10.5 19z" />
<glyph unicode="X" d="M38 -94q-3 8 1 18l352 711l-325 659q-4 10 1 17.5t27 7.5h170q31 0 37 -12l211 -433l209 433q6 12 37 12h170q23 0 28 -7t0 -18l-325 -659l352 -711q4 -10 1 -18t-21 -8h-181q-16 0 -22 5t-10 9l-238 475l-238 -475q-4 -6 -10 -10t-24 -4h-181q-18 0 -21 8z" />
<glyph unicode="Y" d="M55 1292q-14 27 19 27h182q20 0 27 -12l170 -443l59 -174l59 174l170 443q6 12 27 12h180q33 0 19 -27l-340 -848v-522q0 -25 -25 -24h-182q-25 0 -25 24v522z" />
<glyph unicode="Z" d="M98 66q0 8 5.5 18t9.5 20l530 1000h-500q-27 0 -26 26v164q0 10 8 17.5t18 7.5h727q10 0 18.5 -7t8.5 -18v-147q0 -4 -5 -16.5t-7 -16.5l-533 -1001h549q25 0 25 -27v-164q0 -10 -7.5 -17t-17.5 -7h-778q-10 0 -17.5 7t-7.5 17v144z" />
<glyph unicode="[" d="M311 -354v1947q0 10 7.5 18.5t17.5 8.5h348q12 0 19.5 -8t7.5 -19v-151q0 -25 -27 -25h-154v-1595h154q27 0 27 -25v-151q0 -10 -7.5 -18.5t-19.5 -8.5h-348q-10 0 -17.5 8t-7.5 19z" />
<glyph unicode="\" d="M133 1444q-12 41 35 41h162q25 0 32 -23l531 -1673q8 -25 -3 -34t-34 -9h-147q-16 0 -27.5 5t-19.5 24z" />
<glyph unicode="]" d="M311 -203q0 25 25 25h156v1595h-156q-25 0 -25 25v151q0 10 7.5 18.5t17.5 8.5h350q10 0 17.5 -8t7.5 -19v-1947q0 -10 -7.5 -18.5t-17.5 -8.5h-350q-10 0 -17.5 8t-7.5 19v151z" />
<glyph unicode="^" d="M29 692l368 727q4 10 9.5 14.5t21.5 4.5h172q14 0 19.5 -2t11.5 -17l366 -727q16 -31 -30 -30h-160q-14 0 -19.5 3t-13.5 19l-260 494l-262 -494q-8 -16 -13.5 -19t-19.5 -3h-160q-47 0 -30 30z" />
<glyph unicode="_" d="M8 -176q0 10 7.5 17t17.5 7h958q10 0 17.5 -7t7.5 -17v-164q0 -10 -7.5 -17.5t-17.5 -7.5h-958q-10 0 -17.5 7.5t-7.5 17.5v164z" />
<glyph unicode="`" d="M257 1461.5q5 11.5 19 11.5h240q14 0 20.5 -3.5t16.5 -19.5l207 -289q14 -23 -6 -22h-168q-16 0 -27.5 3t-21.5 17l-273 279q-12 12 -7 23.5z" />
<glyph unicode="a" d="M96 197q0 88 36 160.5t109.5 121.5t179 72.5t269.5 23.5q0 37 -7 69t-25.5 60.5t-52.5 48t-83 19.5q-66 0 -136.5 -24.5t-131.5 -65.5q-31 -20 -42 -18t-11 22v160q0 4 -1 15t7 18q10 10 26 18q61 35 135 57.5t150 22.5q197 0 294 -99.5t97 -285.5v-451q0 -55 1 -112.5 t8 -102.5q2 -29 -23 -28h-164q-14 0 -17 2t-3 14v94q-49 -72 -123 -107.5t-150 -35.5q-59 0 -125.5 21.5t-113.5 63.5t-75 103.5t-28 143.5zM315 211q0 -72 43 -107.5t93 -35.5q109 0 178 85t69 205v23q-219 0 -301 -44t-82 -126z" />
<glyph unicode="b" d="M113 -72v1493q0 25 22 25h176q12 0 16.5 -4t4.5 -21v-571q45 63 105.5 95t127.5 32q92 0 163 -42t121 -120t77.5 -187.5t27.5 -199.5q0 -119 -26.5 -224.5t-76.5 -178t-121 -112.5t-165 -40q-68 0 -133 37t-100 98v-80q0 -31 -27 -30h-164q-29 0 -28 30zM322 428 q0 -55 14 -126t42 -120t64.5 -75.5t75.5 -26.5q94 0 149.5 101.5t55.5 246.5q0 135 -53.5 237.5t-151.5 102.5q-92 0 -144 -97.5t-52 -242.5z" />
<glyph unicode="c" d="M131 426q0 119 39 220.5t107.5 175t155.5 113.5t208 40q49 0 109.5 -9.5t117.5 -29.5q8 -2 12.5 -7t2.5 -24l-19 -143q-2 -14 -8 -20.5t-22 -2.5q-43 16 -94.5 24.5t-102.5 8.5q-150 0 -216.5 -98.5t-66.5 -247.5q0 -143 66.5 -237.5t195.5 -112.5q36 -4 70 -4 q80 0 156 22q18 8 23 2t7 -18l11 -144q2 -14 -1.5 -21t-19.5 -11q-20 -8 -51 -14.5t-70 -10.5t-69 -5h-22q-22 0 -46 1q-119 8 -202 53t-145 117t-94 170t-32 213z" />
<glyph unicode="d" d="M57 428q0 90 28 199.5t78 187.5t120.5 120t162.5 42q68 0 128.5 -32t105.5 -95v571q0 16 4 20.5t16 4.5h177q23 0 22 -25v-1493q0 -31 -29 -30h-163q-27 0 -27 30v80q-35 -61 -100.5 -98t-133.5 -37q-94 0 -164.5 40t-120.5 112.5t-77 178t-27 224.5zM289 428 q0 -145 55 -246.5t150 -101.5q39 0 75.5 26.5t64.5 75.5t42 118t14 128q0 145 -52 242.5t-144 97.5q-98 0 -151.5 -102.5t-53.5 -237.5z" />
<glyph unicode="e" d="M100 412q0 104 25 203.5t77 179t132 131t184 51.5q111 0 187.5 -47t125 -124t70 -175.5t21.5 -212.5q0 -14 -1 -32t-1 -24q0 -16 -7.5 -23t-19.5 -7h-561q2 -109 56 -185.5t175 -76.5q74 0 130.5 17t115.5 60q16 8 19 -2t3 -24v-146q0 -18 -6 -27t-20 -20 q-53 -29 -107.5 -45t-134.5 -16q-233 0 -348 149.5t-115 395.5zM332 535h366q0 23 -7 60.5t-28.5 83.5t-60.5 73.5t-88 27.5t-87 -27.5t-59.5 -73.5t-28.5 -84t-7 -60z" />
<glyph unicode="f" d="M109 719v160q0 10 7 17t17 7h227v127q0 98 13.5 178t50.5 142q33 51 93.5 84.5t170.5 33.5q51 0 105.5 -10t93.5 -28q14 -8 14 -29l-8 -139q-1 -35 -19 -31q-29 14 -71.5 25.5t-93.5 11.5h-8q-49 0 -75 -24q-28 -27 -36 -66q-4 -25 -7 -58t-3 -76v-141h315q25 0 25 -24 v-160q0 -10 -7.5 -17.5t-17.5 -7.5h-315v-772q0 -25 -25 -24h-168q-25 0 -25 24v772h-229q-10 0 -17 7.5t-7 17.5z" />
<glyph unicode="g" d="M82 440q0 244 108.5 387.5t286.5 143.5q51 0 97.5 -13.5t84 -45t56.5 -64.5l-2 76q-2 16 2 21t20 5h148q20 0 20 -28v-787q0 -258 -114.5 -400.5t-333.5 -142.5q-68 0 -136.5 10.5t-134.5 39.5q-16 8 -21 14t-5 18l8 170q2 35 35 19q59 -33 126.5 -49.5t129.5 -16.5 q113 0 175 71t64 181q-43 -53 -98 -79.5t-115 -26.5q-88 0 -154.5 32.5t-126 103.5t-90 167t-30.5 194zM305 440q0 -72 15.5 -131t43 -96t58.5 -58.5t70 -21.5q45 0 78.5 21.5t58 56.5t42 96.5t17.5 132.5q0 141 -49 235.5t-139 94.5q-94 0 -144.5 -95t-50.5 -235z" />
<glyph unicode="h" d="M96 -78v1491q0 10 7.5 17.5t15.5 7.5h160q8 0 14 -7.5t6 -17.5v-553q45 55 105.5 83t123.5 28q358 0 359 -502v-547q0 -10 -7.5 -17t-15.5 -7h-172q-25 0 -24 24v545q0 154 -35 224.5t-113 70.5q-186 0 -207 -217v-623q0 -25 -22 -24h-172q-8 0 -15.5 7t-7.5 17z" />
<glyph unicode="i" d="M113 -76v160q0 10 7 17.5t17 7.5h279v630h-242q-10 0 -17 7.5t-7 19.5v160q0 10 7 17t17 7h438q10 0 17.5 -7t7.5 -17v-817h252q10 0 17 -7.5t7 -17.5v-160q0 -27 -24 -26h-752q-10 0 -17 7t-7 19zM342 1266q0 68 45 113.5t111 45.5q68 0 113.5 -46t45.5 -113 q0 -63 -45.5 -108.5t-113.5 -45.5q-66 0 -111 45t-45 109z" />
<glyph unicode="j" d="M104 39v65q0 27 25 27h170q10 0 16.5 -9t6.5 -20v-71q0 -135 37.5 -179.5t105.5 -44.5t101.5 44.5t33.5 179.5v704h-338q-10 0 -17 7.5t-7 19.5v164q0 10 7 17t17 7h535q10 0 17 -7t7 -17v-887q0 -250 -95 -348.5t-261 -98.5t-263.5 97.5t-97.5 349.5zM514 1266 q0 68 45 113.5t111 45.5q68 0 113.5 -46t45.5 -113q0 -63 -45.5 -108.5t-113.5 -45.5q-66 0 -111 45t-45 109z" />
<glyph unicode="k" d="M123 -78v1489q0 10 7 17.5t17 7.5h166q12 0 19.5 -7.5t7.5 -17.5v-885l340 406q16 18 33 18h211q39 0 12 -28l-336 -398l381 -600q20 -27 -14 -26h-189q-23 0 -32 5t-19 21l-268 436l-119 -137v-301q0 -25 -27 -24h-166q-10 0 -17 7t-7 17z" />
<glyph unicode="l" d="M119 -76v160q0 10 7 17.5t17 7.5h279v1116h-213q-10 0 -17.5 7t-7.5 19v160q0 10 7.5 17.5t17.5 7.5h409q10 0 17.5 -7.5t7.5 -17.5v-1302h252q10 0 17.5 -7.5t7.5 -17.5v-160q0 -27 -25 -26h-752q-10 0 -17 7t-7 19z" />
<glyph unicode="m" d="M109 924q-2 27 16 26h151q12 0 13 -16l-2 -82q12 57 47 90t74 33q55 0 99 -49t54 -146q27 98 74 146.5t108 48.5q94 0 157 -103.5t63 -289.5v-658q0 -10 -4.5 -18t-10.5 -8h-168q-6 0 -10 9t-4 19v629q0 102 -14.5 158.5t-46.5 56.5q-20 0 -37 -22.5t-26 -73.5t-9 -107.5 v-128.5v-493q0 -27 -12 -27h-164q-6 0 -10.5 9.5t-4.5 19.5v608q-2 215 -65 215q-37 0 -52.5 -69.5t-15.5 -190.5v-586q0 -27 -14 -26h-170q-4 0 -8 9t-4 19v736q0 78 -1 149.5t-3 112.5z" />
<glyph unicode="n" d="M115 924q-4 27 28 26h160q23 0 19 -16l-3 -74q35 49 97.5 84t132.5 35q147 0 254.5 -109.5t107.5 -341.5v-604q0 -27 -24 -26h-168q-10 0 -17.5 9t-7.5 19v572q0 147 -38 212.5t-113 65.5q-88 0 -146.5 -74.5t-58.5 -216.5v-561q0 -27 -25 -26h-168q-10 0 -17 9t-7 19 v736q0 78 -1 149.5t-5 112.5z" />
<glyph unicode="o" d="M90 422q0 115 26.5 215t81 176t132.5 119t182 43q102 0 181 -43t133.5 -119t81 -176t26.5 -215q0 -113 -26.5 -211t-73.5 -170q-59 -86 -140.5 -130t-181.5 -44q-102 0 -181 43t-133.5 119.5t-81 177t-26.5 215.5zM311 422q0 -66 13.5 -128.5t37 -113.5t60.5 -81.5 t90 -30.5q51 0 89 30.5t61.5 81.5t37 113.5t13.5 128.5q0 63 -13.5 125.5t-37 113t-61.5 82t-89 31.5q-53 0 -90 -30.5t-60.5 -81t-37 -114t-13.5 -126.5z" />
<glyph unicode="p" d="M113 -383v1303q0 31 28 30h164q27 0 27 -30v-80q35 61 100 98t133 37q94 0 165 -40t121 -112.5t76.5 -178t26.5 -224.5q0 -90 -27.5 -199.5t-77.5 -187.5t-121 -120t-163 -42q-68 0 -128 31.5t-105 95.5v-381q0 -16 -4 -20.5t-17 -4.5h-176q-23 0 -22 25zM322 420 q0 -145 52 -242.5t144 -97.5q98 0 151.5 102.5t53.5 237.5q0 145 -55.5 246.5t-149.5 101.5q-39 0 -75.5 -26.5t-64.5 -76t-42 -118t-14 -127.5z" />
<glyph unicode="q" d="M70 420q0 119 26.5 224.5t76.5 178t121 112.5t165 40q68 0 133 -37t100 -98v80q0 31 27 30h164q29 0 28 -30v-1303q0 -25 -22 -25h-176q-12 0 -16.5 4.5t-4.5 20.5v381q-45 -63 -105.5 -95t-127.5 -32q-92 0 -163 42t-121 120t-77.5 187.5t-27.5 199.5zM301 420 q0 -135 53.5 -237.5t151.5 -102.5q92 0 144 97t52 243q0 59 -14 127.5t-42 118t-64.5 76t-75.5 26.5q-94 0 -149.5 -101.5t-55.5 -246.5z" />
<glyph unicode="r" d="M53 772v154q0 10 7.5 17t17.5 7h336q8 0 13 -5t5 -13v-174q20 43 44 74.5t51.5 57t63.5 47t105 38.5q38 6 75 6q49 -1 96 -11q83 -18 139 -63q10 -10 8 -18t-4 -17l-68 -139q-4 -12 -13 -16t-24 4q-47 27 -105 37q-29 5 -56.5 5t-55.5 -5q-96 -18 -151.5 -92t-67.5 -150 t-12 -178v-229h213q10 0 17 -7.5t7 -17.5v-160q0 -27 -24 -26h-553q-10 0 -17.5 7t-7.5 19v160q0 10 7 17.5t18 7.5h129v565v71h-168q-10 0 -17.5 7.5t-7.5 19.5z" />
<glyph unicode="s" d="M152 -55l12 137q2 18 6 22.5t27 -2.5q72 -20 142.5 -29.5t127.5 -9.5q90 0 134 32t44 87q0 29 -22.5 60.5t-75.5 64.5q-55 33 -114.5 67t-117.5 64q-66 37 -109.5 102.5t-43.5 127.5q0 76 30.5 136t82 101t118 59.5t139.5 18.5q39 0 81 -4t82 -11t72 -16.5t48 -19.5 q10 -4 11 -9t-1 -16l-12 -135q-2 -20 -12 -25.5t-29 3.5q-39 14 -88 26q-39 8 -75 11.5t-64 3.5q-84 0 -119 -31t-35 -68q0 -35 39 -70.5t98 -66.5q66 -33 119 -64.5t80 -52.5q74 -51 110.5 -111.5t36.5 -125.5q0 -160 -137 -260q-104 -72 -262 -74q-41 0 -85 4t-82 9 t-75.5 14.5t-56.5 17.5q-8 2 -17 10t-7 23z" />
<glyph unicode="t" d="M82 721v162q0 10 7 17t17 7h226v297q0 10 8 17.5t18 7.5h166q12 0 19.5 -7.5t7.5 -17.5v-297h344q10 0 17.5 -7t7.5 -17v-162q0 -10 -7.5 -17.5t-17.5 -7.5h-344v-399q0 -133 6 -170q4 -39 38 -47t91 -8q47 0 98.5 10t100.5 27q10 4 14 0.5t8 -19.5l17 -145 q1 -15 -11 -25q-77 -27 -153 -39q-66 -10 -113 -10h-16q-106 0 -170 36t-88 83q-29 53 -35 124.5t-6 194.5v387h-226q-10 0 -17 7.5t-7 17.5z" />
<glyph unicode="u" d="M111 315v607q0 10 7 19t15 9h174q8 0 15.5 -10t7.5 -20v-572q0 -154 43 -217t114 -63q88 0 145.5 84t57.5 249v521q0 10 7.5 19t19.5 9h170q8 0 15 -11t7 -21v-756q0 -63 2 -125t2 -113q0 -27 -22 -26h-166q-8 0 -15.5 5t-7.5 15v84q-39 -68 -99 -102.5t-140 -34.5 q-154 0 -253 116.5t-99 333.5z" />
<glyph unicode="v" d="M74 928q-4 10 0 16t26 6h168q10 0 16.5 -3t10.5 -13l154 -518l61 -232l59 232l154 518q4 10 11 13t18 3h170q23 0 26.5 -6t-0.5 -16l-325 -1012q-4 -12 -8.5 -15t-16.5 -3h-176q-12 0 -17.5 3t-9.5 15z" />
<glyph unicode="w" d="M47 928q-2 10 2 16t39 6h111q29 0 36 -6t9 -16l63 -547l12 -168l15 168l67 465q2 10 11.5 16t31.5 6h138q37 0 41 -22l67 -465l17 -168l12 168l61 547q2 8 10.5 15t28.5 7h117q31 0 37 -6t4 -16l-152 -1000q-8 -18 -14 -24t-29 -6h-145q-23 0 -32 10t-11 20l-72 512 l-10 113l-8 -113l-72 -512q-8 -20 -16 -25t-31 -5h-143q-16 0 -26.5 10t-14.5 20z" />
<glyph unicode="x" d="M75 -95q-1 7 3 17l315 508l-278 496q-4 10 0 17t16 7h184q14 0 33 -24l164 -299l164 299q18 25 33 24h184q33 0 18 -24l-280 -496l315 -508q4 -10 2 -17t-12 -7h-191q-18 0 -30 12l-203 326l-195 -314q-18 -25 -38 -24h-191q-12 0 -13 7z" />
<glyph unicode="y" d="M98 928q-8 25 17 24h170q20 0 24 -24l205 -611l209 611q4 25 25 24h172q23 0 14 -24l-373 -1063q-53 -150 -123 -211.5t-174 -61.5q-41 0 -72.5 4.5t-62.5 16.5q-10 4 -16.5 11t-3.5 20l12 135q0 27 22 18q27 -8 53.5 -11t49.5 -3q31 0 51 9t33 28q10 20 20 41.5t19.5 46 t20.5 56.5t20 63z" />
<glyph unicode="z" d="M119 74q0 14 10 30l506 637h-467q-8 0 -15.5 8.5t-7.5 18.5v158q0 10 7.5 17t15.5 7h709q10 0 17 -7t7 -17v-152q0 -12 -14 -33l-506 -635h500q25 0 24 -26v-158q0 -10 -7 -17t-17 -7h-738q-10 0 -17 7t-7 17v152z" />
<glyph unicode="{" d="M207 578v86q0 10 5 14t32 8q37 8 52 15.5t28 19.5q10 10 22 27.5t22.5 44t17.5 66.5t7 95v355q0 47 10.5 95t33 90t58 71.5t87.5 42.5q27 8 65 8h109q20 0 20 -23v-125q0 -25 -20 -24h-94q-23 0 -43.5 -46t-20.5 -130v-348q0 -104 -34 -176t-101 -123q68 -53 101.5 -124 t33.5 -175v-351q0 -84 20.5 -129t43.5 -45h94q20 0 20 -24v-125q0 -25 -20 -25h-109q-39 0 -65 8q-51 12 -87 43t-58.5 72t-33 89t-10.5 95v357q0 55 -7 95t-17.5 66.5t-22.5 43t-22 26.5q-12 12 -27.5 19.5t-52.5 17.5q-27 4 -32 8t-5 15z" />
<glyph unicode="|" d="M401 -301v809q0 27 27 27h168q27 0 27 -27v-809q0 -27 -27 -27h-168q-27 0 -27 27zM401 723v805q0 27 27 26h168q27 0 27 -26v-805q0 -27 -27 -27h-168q-27 0 -27 27z" />
<glyph unicode="}" d="M248 -227q0 25 20 24h94q23 0 43.5 45t20.5 129v351q0 104 34 174.5t99 124.5q-66 51 -100.5 122.5t-34.5 176.5v348q0 84 -19.5 130t-42.5 46h-94q-20 0 -20 24v125q0 23 20 23h107q41 0 65 -8q51 -12 87 -42t58.5 -72t33 -90t10.5 -95v-355q0 -55 7 -95t18.5 -66.5 t23.5 -44t22 -27.5t26.5 -18.5t53.5 -16.5q27 -4 32 -8t5 -14v-86q0 -15 -37 -23q-37 -10 -52 -17.5t-28 -19.5q-10 -10 -22 -26.5t-22.5 -43t-17.5 -66.5t-7 -95v-357q0 -47 -10.5 -95t-33 -89t-58 -71.5t-87.5 -43.5q-27 -8 -65 -8h-109q-20 0 -20 25v125z" />
<glyph unicode="~" d="M12 610q4 10 15.5 24.5t25.5 35.5q51 63 108.5 93t137.5 30q41 0 86 -12.5t90 -28.5q43 -16 79 -31.5t87 -36.5q55 -20 76 -20q41 0 90 40.5t88 96.5q8 12 15.5 10t11.5 -10l86 -131q4 -8 6 -13.5t-6 -17.5q-49 -92 -127 -135t-166 -43q-41 0 -104.5 19.5t-125.5 47.5 q-78 35 -113.5 47.5t-74.5 12.5q-20 0 -45 -12.5t-46.5 -31t-42 -40t-34.5 -41.5q-20 -33 -35 -4l-69 114q-16 29 -13 37z" />
<glyph unicode="&#xa0;" />
<glyph unicode="&#xa1;" horiz-adv-x="2048" d="M879 1272q0 61 42 103t103 42t102 -42t41 -103t-41 -103.5t-102 -42.5t-103 42t-42 104zM893 -113l31 1080q0 29 4 35t33 6h129q25 0 29.5 -5.5t4.5 -35.5l29 -1080q2 -43 -4 -52t-35 -9h-180q-29 0 -35 9t-6 52z" />
<glyph unicode="&#xa4;" horiz-adv-x="2048" d="M207 1200l125 123l237 -213q88 80 200 124t241 44q133 0 247.5 -47t204.5 -133l256 229l123 -123l-268 -237q47 -78 73.5 -166t26.5 -187q0 -104 -30.5 -199.5t-86.5 -172.5l283 -258l-113 -131l-284 260q-86 -76 -197.5 -119t-234.5 -43q-117 0 -223.5 38t-192.5 107 l-272 -248l-113 132l264 241q-59 82 -93 182.5t-34 210.5q0 100 27.5 192.5t77.5 172.5zM514 614q0 -104 39 -194t105.5 -156.5t156.5 -105.5t195 -39q104 0 194 39t156.5 105.5t105.5 156.5t39 194t-39 194.5t-105.5 157t-156.5 105.5t-194 39t-194.5 -39t-157 -105.5 t-105.5 -156.5t-39 -195z" />
<glyph unicode="&#xa7;" horiz-adv-x="2048" d="M721 698q0 98 37 151.5t102 68.5q-43 59 -68.5 121.5t-25.5 136.5q0 281 260 280q129 0 189.5 -64.5t60.5 -174.5h-174q0 72 -25.5 92t-58.5 20q-45 0 -64.5 -24.5t-19.5 -81.5q0 -78 40 -136.5t111 -128.5q104 -104 173 -210.5t69 -227.5q0 -166 -125 -205 q41 -59 59.5 -112t18.5 -123q0 -150 -69.5 -224.5t-200.5 -74.5q-123 0 -194 60.5t-71 189.5h181q0 -68 23.5 -89.5t58.5 -21.5q45 0 64.5 24.5t19.5 92.5q0 131 -111 235q-113 104 -186.5 208t-73.5 218zM889 715.5q6 -27.5 21.5 -59t33.5 -58.5q53 -82 86 -117t68 -35 q37 0 49 18.5t9 45.5t-18.5 57.5t-31.5 55.5q-59 86 -94 121.5t-80 35.5q-31 0 -40 -18.5t-3 -46z" />
<glyph unicode="&#xa8;" horiz-adv-x="2048" d="M602 1348q0 61 43 104t103 43q61 0 104 -43t43 -104q0 -59 -43 -102.5t-104 -43.5q-59 0 -102.5 43.5t-43.5 102.5zM1151 1348q0 61 43 104t102 43q61 0 104.5 -43t43.5 -104q0 -59 -43 -102.5t-105 -43.5q-59 0 -102 43.5t-43 102.5z" />
<glyph unicode="&#xa9;" horiz-adv-x="2048" d="M205 610q0 178 61.5 327.5t171 258.5t259 169t327.5 60t327.5 -60t259 -169t171 -258.5t61.5 -327.5t-61.5 -327.5t-171 -258t-259 -169t-327.5 -60.5t-327.5 60.5t-259 169t-171 258t-61.5 327.5zM352 610q0 -145 50.5 -268t139.5 -212t212 -139t270 -50q145 0 267 50 t211 139t139.5 212t50.5 268t-50.5 268t-139.5 212.5t-211 139.5t-267 50q-147 0 -270 -50t-212 -139.5t-139.5 -212t-50.5 -268.5zM547 606q0 117 30.5 217.5t90 176t148.5 118.5t206 43q84 0 158.5 -21.5t133 -69.5t96.5 -123t50 -181h-207q-16 102 -77.5 151.5 t-153.5 49.5q-70 0 -120 -30t-82 -80t-47 -115.5t-15 -135.5q0 -74 15 -139.5t47 -114.5t82 -77.5t120 -28.5q102 0 163.5 54t71.5 181h213q-16 -117 -55 -198.5t-97 -133t-133 -74t-163 -22.5q-119 0 -208 44t-148.5 120t-89 176.5t-29.5 212.5z" />
<glyph unicode="&#xaa;" horiz-adv-x="2048" d="M674 535v159h698v-159h-698zM721 993q0 49 17.5 85t55 62.5t96 46t140.5 36.5q27 4 49.5 19t22.5 46q0 78 -101 78q-53 0 -83.5 -23.5t-30.5 -74.5h-142q0 115 74 169t189 54q51 0 94 -10.5t74.5 -35t49 -65.5t17.5 -102v-317q0 -18 19 -23q10 -2 21 1t28 7v-123 q-31 -8 -47.5 -9t-34.5 -1q-37 0 -60.5 13.5t-40.5 41.5q-23 -35 -69.5 -55t-120.5 -20q-98 0 -157.5 48t-59.5 152zM864 993q0 -74 82 -73q84 0 120 34.5t36 89.5v84q-10 -10 -22.5 -15t-20.5 -7q-61 -12 -99 -24.5t-59.5 -26t-29 -28.5t-7.5 -34z" />
<glyph unicode="&#xab;" horiz-adv-x="2048" d="M283 561v107l948 673l88 -116l-856 -611l856 -610l-88 -117zM727 561v107l950 663l86 -114l-854 -603l854 -602l-86 -114z" />
<glyph unicode="&#xad;" d="M115 555v164q0 10 8 17t18 7h742q12 0 19 -7t7 -17v-164q0 -10 -7 -17.5t-19 -7.5h-742q-10 0 -18 7.5t-8 17.5z" />
<glyph unicode="&#xae;" horiz-adv-x="2048" d="M199 668q0 342 241.5 583.5t583.5 241.5q340 0 581.5 -241.5t241.5 -583.5t-241.5 -583t-581.5 -241q-342 0 -583.5 241t-241.5 583zM295 668q0 -301 214 -513t515 -212t514 212t213 513t-213 515t-514 214t-515 -214t-214 -515zM702 152v1048h295q182 0 281.5 -76.5 t99.5 -208.5q0 -109 -69.5 -184.5t-194.5 -101.5v-4q86 -18 172 -195l137 -278h-178l-112 251q-88 190 -189 191h-96v-442h-146zM848 717h158q217 0 217 180q0 96 -59.5 137t-184.5 41h-131v-358z" />
<glyph unicode="&#xb0;" horiz-adv-x="2048" d="M766 1257q0 53 20.5 100.5t55.5 82.5t82 55.5t100 20.5t100 -20.5t82 -55.5t55.5 -82.5t20.5 -100.5t-20.5 -100t-55.5 -82t-82 -55.5t-100 -20.5t-100 20.5t-82 55.5t-55.5 82t-20.5 100zM905 1257q0 -49 35 -84.5t84 -35.5t84 35.5t35 84.5t-35 85t-84 36t-84 -35.5 t-35 -85.5z" />
<glyph unicode="&#xb1;" horiz-adv-x="2048" d="M510 743v136q0 27 27 26h389v398q0 27 26 26h140q27 0 26 -26v-398h393q27 1 27 -26v-136q0 -27 -27 -26h-393v-400q0 -27 -26 -26h-140q-27 0 -26 26v400h-389q-27 0 -27 26zM520 25v135q0 27 29 26h948q29 1 29 -26v-135q0 -27 -29 -27h-948q-29 0 -29 27z" />
<glyph unicode="&#xb2;" horiz-adv-x="2048" d="M854 1012q4 96 48 148t108 91q37 23 59.5 47.5t22.5 59.5q0 51 -58 51q-68 0 -67 -100h-101q0 96 45 145t119 49q66 0 112 -36.5t46 -108.5q0 -37 -12.5 -63.5t-33 -48t-47 -41t-57.5 -38.5q-23 -14 -35 -29.5t-18 -27.5h207v-98h-338z" />
<glyph unicode="&#xb3;" horiz-adv-x="2048" d="M854 1178h98q0 -49 17.5 -65.5t54.5 -16.5q70 0 70 63q0 59 -66 60h-41v84h41q23 0 37 17t14 40q0 25 -17.5 37t-39.5 12q-61 0 -61 -74h-99q0 86 44 126t116 40q61 0 108.5 -31.5t47.5 -105.5q0 -27 -10.5 -51.5t-32.5 -40.5q27 -10 43 -39t16 -72q0 -78 -51 -116.5 t-121 -38.5q-37 0 -67.5 8t-53 27.5t-35 52t-12.5 84.5z" />
<glyph unicode="&#xb4;" horiz-adv-x="2048" d="M786 1053l199 440h277l-351 -440h-125z" />
<glyph unicode="&#xb6;" horiz-adv-x="2048" d="M551 1036q0 92 30.5 171t89 136.5t145.5 90t202 32.5h477v-1693h-182v1534h-148v-1534h-182v835q-205 16 -318.5 133t-113.5 295z" />
<glyph unicode="&#xb7;" horiz-adv-x="2048" d="M864 682q0 68 44 113t112 45t115 -45t47 -113q0 -70 -46 -114t-114 -44t-113 44t-45 114z" />
<glyph unicode="&#xb8;" horiz-adv-x="2048" d="M805 -330l57 94q41 -29 70 -41t63 -12q35 0 63.5 19.5t28.5 50.5q0 33 -19 52.5t-52 19.5q-45 0 -78 -41l-64 36l99 220h135l-41 -107h20q72 0 113 -48t41 -120q0 -80 -62.5 -140.5t-172.5 -60.5q-47 0 -101.5 20.5t-99.5 57.5z" />
<glyph unicode="&#xb9;" horiz-adv-x="2048" d="M932 1313v88q27 2 43 6t26.5 14.5t16.5 27.5t10 46h88v-479h-100v297h-84z" />
<glyph unicode="&#xba;" horiz-adv-x="2048" d="M674 535v159h698v-159h-698zM717 1139q0 172 85 260t218 88q66 0 122 -22.5t96 -65.5t62.5 -108.5t22.5 -151.5t-22.5 -151.5t-62.5 -108.5t-96.5 -65.5t-121.5 -22.5q-133 0 -218 88t-85 260zM862 1139q0 -111 42 -165t116 -54t116 54t42 165t-42 165t-116 54 t-116 -54.5t-42 -164.5z" />
<glyph unicode="&#xbb;" horiz-adv-x="2048" d="M283 12l854 602l-854 603l86 114l950 -663v-107l-950 -663zM727 4l856 610l-856 611l88 116l948 -673v-107l-948 -674z" />
<glyph unicode="&#xbc;" horiz-adv-x="2048" d="M424 88l1102 1147l96 -82l-1098 -1157zM477 1167v136q41 2 66.5 8t41 21.5t23.5 43t15 72.5h137v-737h-154v456h-129zM1057 -43v121l327 450h123v-424h111v-147h-111v-168h-147v168h-303zM1231 104h129v177z" />
<glyph unicode="&#xbd;" horiz-adv-x="2048" d="M422 90l1102 1147l98 -82l-1098 -1157zM483 1167v136q41 2 66.5 8t41 21.5t24 43t14.5 72.5h139v-737h-154v456h-131zM1102 -219q2 74 22.5 128t52 95t74.5 73t90 62q59 35 94 69t35 87q0 80 -90 80q-104 0 -104 -156h-156q0 147 70 224t184 77q102 0 173 -56t71 -169 q0 -55 -19.5 -95t-51 -73t-73.5 -60.5t-88 -56.5q-35 -23 -53 -41t-28 -39h319v-149h-522z" />
<glyph unicode="&#xbe;" horiz-adv-x="2048" d="M403 969h150q0 -76 26.5 -102.5t84.5 -26.5q51 0 79.5 23.5t28.5 70.5q0 96 -100 96h-64v129h62q35 0 57.5 19.5t22.5 56.5t-26 56.5t-62 19.5q-94 0 -95 -121h-151q0 129 67.5 195.5t175.5 66.5q47 0 91.5 -12.5t78 -38t53 -65.5t19.5 -95q0 -41 -15.5 -76t-51.5 -59 q41 -16 66.5 -59t25.5 -109q0 -59 -21.5 -104.5t-57.5 -74t-84 -43t-99 -14.5q-57 0 -104.5 12.5t-82.5 43t-54.5 82t-19.5 129.5zM444 88l1102 1147l99 -82l-1098 -1157zM1051 -47v121l327 450h123v-424h113v-147h-111v-168h-147v168h-305zM1225 100h129l2 176z" />
<glyph unicode="&#xbf;" horiz-adv-x="2048" d="M643 205q0 98 20.5 162.5t55.5 113.5q55 74 104 144.5t80 111.5q35 51 53.5 112.5t18.5 139.5q0 37 37 37h151q16 0 24.5 -6t8.5 -27q0 -63 -12.5 -130.5t-34.5 -114.5q-23 -47 -53.5 -98.5t-73.5 -98.5q-63 -72 -106.5 -155t-43.5 -156q0 -98 62.5 -148.5t148.5 -50.5 q78 0 140.5 13.5t134.5 43.5q18 8 31.5 5t13.5 -23v-168q0 -20 -23 -31q-72 -25 -161 -41t-154 -16q-90 0 -168 28.5t-134 80t-88 121t-32 151.5zM958 1282q0 57 40 96t98 39q55 0 94 -39t39 -96q0 -55 -39 -95t-94 -40q-57 0 -97.5 40t-40.5 95z" />
<glyph unicode="&#xc6;" horiz-adv-x="2048" d="M252 -86l622 1470h908v-223h-559v-373h510v-223h-510v-428h573v-223h-813v387h-309l-164 -387h-258zM768 524h215v525z" />
<glyph unicode="&#xd0;" horiz-adv-x="2048" d="M332 637v160h237v587h490q334 0 495.5 -176t161.5 -559q0 -385 -161.5 -560t-495.5 -175h-490v723h-237zM809 135h223q131 0 217 29t137.5 90t72 158.5t20.5 236.5q0 137 -20.5 235.5t-72 160t-137.5 90t-217 28.5h-223v-366h182v-160h-182v-502z" />
<glyph unicode="&#xd7;" horiz-adv-x="2048" d="M496 229.5q0 14.5 10 24.5l385 385l-371 367q-10 10 -10 22t10 23l88 90q25 25 47 0l371 -365l375 371q10 10 23.5 10t23.5 -10l82 -88q10 -10 10 -24.5t-10 -24.5l-371 -373l381 -383q10 -10 10 -22.5t-10 -22.5l-86 -90q-10 -10 -23.5 -10t-23.5 10l-383 383l-387 -385 q-29 -25 -45 0l-86 88q-10 10 -10 24.5z" />
<glyph unicode="&#xd8;" horiz-adv-x="2048" d="M365 649q0 184 51 326.5t140 241t209 148.5t259 50q180 0 324 -84l137 236l131 -74l-148 -254q100 -98 157.5 -244.5t57.5 -345.5q0 -184 -51 -326.5t-140 -240.5t-210 -148.5t-258 -50.5q-160 0 -299 70l-166 -289l-131 76l172 297q-109 98 -172 250.5t-63 361.5z M606 649q0 -129 30 -230.5t85 -172.5l514 891q-92 57 -211 57q-98 0 -175 -38t-131 -108.5t-83 -171t-29 -227.5zM838 147q80 -43 186 -43q98 0 175 38t131 109t83 171t29 227q0 238 -96 377z" />
<glyph unicode="&#xde;" horiz-adv-x="2048" d="M604 -86v1470h240v-208q104 -2 210.5 -33t193.5 -94.5t141.5 -162t54.5 -233.5t-54.5 -233t-140.5 -161.5t-192.5 -94.5t-210.5 -33v-217h-242zM844 332q59 2 124.5 20.5t120 56t90 98t35.5 146.5h3q0 86 -36 146.5t-91.5 98.5t-121 56.5t-124.5 20.5v-643z" />
<glyph unicode="&#xdf;" horiz-adv-x="2048" d="M459 -86v1470h583q106 0 194.5 -20.5t152 -65.5t98.5 -117.5t35 -176.5q0 -111 -40 -190t-130 -132q100 -37 167.5 -135.5t67.5 -245.5q0 -113 -27.5 -205t-82 -158.5t-133 -102.5t-181.5 -36q-168 0 -271.5 77t-129.5 253h229q10 -70 46 -100.5t114 -30.5 q102 0 151.5 67.5t49.5 208.5q0 150 -80 221.5t-228 71.5h-344v-653h-241zM698 793h344q131 0 184.5 47t53.5 137h2q0 90 -56.5 137t-181.5 47h-346v-368z" />
<glyph unicode="&#xe6;" horiz-adv-x="2048" d="M244 205q0 78 29.5 136t91 102t156.5 76t227 56q43 8 84.5 33t41.5 72q0 68 -44 97.5t-123 29.5q-86 0 -139.5 -38t-53.5 -122h-229q0 94 32.5 162t90 113t135.5 66.5t170 21.5q104 0 189 -27t136 -94q59 59 136 90t169 31q113 0 199 -41t144.5 -116t88 -178.5 t29.5 -228.5h-2v-73h-692q4 -131 64.5 -207t171.5 -76q117 0 170 44t69 134h217q-35 -188 -145.5 -286.5t-308.5 -98.5q-111 0 -203 44t-158 136q-57 -92 -156.5 -136t-234.5 -44q-156 0 -254 79t-98 243zM475 205q0 -57 36 -87t97 -30q133 0 197.5 55.5t66.5 143.5l2 137 q-16 -14 -37.5 -23.5t-31.5 -11.5q-98 -23 -162.5 -42t-101.5 -40.5t-51.5 -46t-14.5 -55.5zM1116 578h457h2q-12 98 -64.5 161.5t-164.5 63.5q-106 0 -158.5 -63.5t-71.5 -161.5z" />
<glyph unicode="&#xf0;" horiz-adv-x="2048" d="M537 436q0 137 38.5 241.5t105.5 173.5t155 103.5t188 34.5q88 0 166 -26q-10 47 -30.5 92t-49.5 86l-98 -94l-90 90l51 51q10 10 19 18t18 17l16 16q-70 68 -139 115l55 90q104 -47 184 -105l58 54q25 23 55 55l92 -90l-102 -101q82 -76 136 -166t87 -193t46 -219 t13 -241q0 -133 -38.5 -236.5t-105.5 -174t-155 -107.5t-188 -37t-188 35t-155 103.5t-105.5 172t-38.5 242.5zM768 436q0 -178 69.5 -260t186.5 -82q119 0 187.5 82t68.5 260t-67.5 260t-188.5 82q-119 0 -187.5 -82t-68.5 -260z" />
<glyph unicode="&#xf7;" horiz-adv-x="2048" d="M436 573v132q0 27 29 26h1118q29 1 29 -26v-132q0 -27 -29 -26h-1118q-29 0 -29 26zM872 219q0 63 41 105.5t107 42.5t108.5 -42t42.5 -106q0 -66 -43 -107.5t-106 -41.5q-66 0 -108 42t-42 107zM872 1061q0 63 41 105t107 42t108.5 -42t42.5 -105q0 -66 -43 -108 t-106 -42q-66 0 -108 42t-42 108z" />
<glyph unicode="&#xf8;" horiz-adv-x="2048" d="M537 446q0 137 36.5 243t101 177.5t154 107.5t195.5 36q92 0 174 -29l88 188l123 -55l-92 -196q92 -70 143 -188t51 -284q0 -139 -36.5 -243.5t-101 -176t-154 -107.5t-195.5 -36q-92 0 -174 29l-98 -209l-121 57l100 215q-92 68 -143 187t-51 284zM768 446 q0 -168 63 -256l277 596q-37 12 -84 13q-119 0 -187.5 -87t-68.5 -266zM940 106q37 -12 84 -12q121 0 188.5 87t67.5 265q0 166 -61 256z" />
<glyph unicode="&#xfe;" horiz-adv-x="2048" d="M582 -295v1679h229v-409q66 35 166 35q106 0 195.5 -36t154 -107.5t101 -177.5t36.5 -243q0 -139 -36.5 -243.5t-101 -176t-154 -107.5t-195.5 -36q-100 0 -166 35v-213h-229zM811 156q63 -61 166 -62q121 0 188.5 87t67.5 265t-67.5 265.5t-188.5 87.5q-102 0 -166 -64 v-579z" />
<glyph unicode="&#x152;" horiz-adv-x="2048" d="M223 649q0 383 162 559t496 176h929v-223h-559v-373h510v-223h-510v-428h574v-223h-944q-334 0 -496 175t-162 560zM461 649q0 -139 20.5 -236.5t71.5 -158.5t137 -90t217 -29h80v1028h-80q-131 0 -217 -28.5t-137 -90t-71.5 -160t-20.5 -235.5z" />
<glyph unicode="&#x153;" horiz-adv-x="2048" d="M182 446q0 137 37 243t101.5 177.5t153.5 107.5t196 36q119 0 216 -45t163 -136q61 88 153 134.5t203 46.5q113 0 199 -41t144 -116t88 -178.5t30 -228.5h-2v-73h-693q4 -131 64.5 -207t171.5 -76q117 0 170 44t70 134h217q-35 -188 -145.5 -286.5t-309.5 -98.5 q-111 0 -203 44t-155 134q-66 -88 -163 -133t-216 -45q-106 0 -195.5 36t-155 107.5t-102.5 176t-37 243.5zM414 446q0 -178 67.5 -265t188.5 -87t188.5 87t67.5 265h2q0 178 -67.5 265.5t-188.5 87.5q-119 0 -188.5 -87t-69.5 -266zM1178 578h456h2q-12 98 -64 161.5 t-165 63.5q-106 0 -158.5 -63.5t-70.5 -161.5z" />
<glyph unicode="&#x2dc;" horiz-adv-x="2048" d="M508 1333q92 90 167 129t156 39q66 0 122.5 -19.5t103.5 -47.5q45 -27 77.5 -38.5t79.5 -11.5q39 0 69 4.5t55.5 14.5t53 30.5t64.5 51.5l84 -84q-92 -90 -167 -129t-156 -39q-66 0 -122.5 19.5t-103.5 47.5q-43 25 -76.5 37.5t-80.5 12.5q-39 0 -69 -4.5t-55.5 -14.5 t-53 -30.5t-64.5 -51.5z" />
<glyph unicode="&#x2000;" horiz-adv-x="810" />
<glyph unicode="&#x2001;" horiz-adv-x="1620" />
<glyph unicode="&#x2002;" horiz-adv-x="810" />
<glyph unicode="&#x2003;" horiz-adv-x="1620" />
<glyph unicode="&#x2004;" horiz-adv-x="540" />
<glyph unicode="&#x2005;" horiz-adv-x="405" />
<glyph unicode="&#x2006;" horiz-adv-x="270" />
<glyph unicode="&#x2007;" horiz-adv-x="270" />
<glyph unicode="&#x2008;" horiz-adv-x="202" />
<glyph unicode="&#x2009;" horiz-adv-x="324" />
<glyph unicode="&#x200a;" horiz-adv-x="90" />
<glyph unicode="&#x2010;" d="M115 555v164q0 10 8 17t18 7h742q12 0 19 -7t7 -17v-164q0 -10 -7 -17.5t-19 -7.5h-742q-10 0 -18 7.5t-8 17.5z" />
<glyph unicode="&#x2011;" d="M115 555v164q0 10 8 17t18 7h742q12 0 19 -7t7 -17v-164q0 -10 -7 -17.5t-19 -7.5h-742q-10 0 -18 7.5t-8 17.5z" />
<glyph unicode="&#x2012;" d="M115 555v164q0 10 8 17t18 7h742q12 0 19 -7t7 -17v-164q0 -10 -7 -17.5t-19 -7.5h-742q-10 0 -18 7.5t-8 17.5z" />
<glyph unicode="&#x2013;" horiz-adv-x="2048" d="M721 541v196h606v-196h-606z" />
<glyph unicode="&#x2014;" horiz-adv-x="2048" d="M139 547v184h1770v-184h-1770z" />
<glyph unicode="&#x2018;" horiz-adv-x="2048" d="M891 1153q-6 76 9 130t48 106q31 47 74 81.5t96 45.5q27 12 27 -11v-80q0 -16 -3 -21t-9 -9q-37 -16 -61.5 -48t-29.5 -73q43 -10 81 -42t38 -87q0 -66 -38 -107t-99 -41q-55 0 -92 47.5t-41 108.5z" />
<glyph unicode="&#x2019;" horiz-adv-x="2048" d="M885 1364q0 66 38 106.5t97 40.5q57 0 94 -47t41 -108q6 -76 -9.5 -130.5t-49.5 -105.5q-31 -47 -74 -81.5t-96 -45.5q-27 -12 -27 11v79q0 16 3 21.5t11 9.5q35 16 60.5 48t27.5 73q-43 10 -79.5 42t-36.5 87z" />
<glyph unicode="&#x201c;" horiz-adv-x="2048" d="M733 1153q-6 76 9.5 130t50.5 106q29 47 72.5 81.5t95.5 45.5q29 12 28 -11v-80q0 -16 -3 -21t-9 -9q-80 -35 -90 -121q41 -10 80 -42t39 -87q0 -66 -39.5 -107t-98.5 -41q-55 0 -93 47.5t-42 108.5zM1047 1153q-6 76 10 130t51 106q29 47 72 81.5t96 45.5q29 12 29 -11 v-80q0 -16 -3.5 -21t-11.5 -9q-37 -16 -61.5 -48t-26.5 -73q41 -10 79 -42t38 -87q0 -66 -38 -107t-97 -41q-57 0 -95 47.5t-42 108.5z" />
<glyph unicode="&#x201d;" horiz-adv-x="2048" d="M727 1364q0 66 39 106.5t98 40.5q55 0 93 -47t42 -108q6 -76 -9 -130.5t-50 -105.5q-29 -47 -73 -81.5t-95 -45.5q-29 -12 -29 11v79q0 16 3.5 21.5t9.5 9.5q39 16 63.5 48t26.5 73q-41 10 -80 42t-39 87zM1042 1364q0 66 38.5 106.5t97.5 40.5q55 0 93 -47t44 -108 q6 -76 -10.5 -130.5t-51.5 -105.5q-29 -47 -72.5 -81.5t-95.5 -45.5q-29 -12 -28 11v79q0 16 3 21.5t11 9.5q37 16 61.5 48t26.5 73q-41 10 -79 42t-38 87z" />
<glyph unicode="&#x2022;" horiz-adv-x="2048" d="M797 625q0 47 18.5 88t49 71.5t71.5 49t88 18.5t88 -18.5t71.5 -49t49 -71.5t18.5 -88t-18.5 -88t-49 -72t-71.5 -48.5t-88 -17.5t-88 17.5t-71.5 48.5t-49 72t-18.5 88z" />
<glyph unicode="&#x2026;" horiz-adv-x="2048" d="M254 678q0 63 45 108t109 45q63 0 108 -45t45 -108t-45 -108.5t-108 -45.5t-108.5 45.5t-45.5 108.5zM866 678q0 63 45 108t109 45q63 0 108.5 -45t45.5 -108t-45.5 -108.5t-108.5 -45.5t-108.5 45.5t-45.5 108.5zM1485 678q0 63 45 108t108 45t108.5 -45t45.5 -108 t-45 -108.5t-109 -45.5q-63 0 -108 45.5t-45 108.5z" />
<glyph unicode="&#x202f;" horiz-adv-x="324" />
<glyph unicode="&#x2039;" horiz-adv-x="2048" d="M299 614l1448 885v-74l-1307 -811l1307 -809v-77z" />
<glyph unicode="&#x203a;" horiz-adv-x="2048" d="M299 -195l1307 809l-1307 811v74l1448 -885l-1448 -886v77z" />
<glyph unicode="&#x205f;" horiz-adv-x="405" />
<glyph unicode="&#x20ac;" horiz-adv-x="2048" d="M512 389v166h102q-2 35 -2 65.5t2 61.5h-102v166h121q18 115 59 195.5t113 162.5q82 90 171 134t206 44q131 0 215 -21.5t139 -74.5l-100 -184q-47 39 -111.5 58.5t-136.5 19.5t-127 -29t-105 -86q-37 -45 -63.5 -99.5t-34.5 -119.5h459l-70 -166h-403q-2 -18 -3 -34.5 t-1 -33.5q0 -14 -1 -28.5t1 -30.5h346l-60 -166h-268q6 -51 26.5 -97t65.5 -95q47 -57 104.5 -88t112.5 -31q39 0 91.5 10t95.5 29q41 16 81 44.5t81 74.5v-252q-76 -59 -162 -82t-205 -23q-113 0 -202 44t-167 124q-66 80 -97.5 154.5t-47.5 187.5h-123z" />
<glyph unicode="&#x2122;" horiz-adv-x="2048" d="M182 1307v163h721v-163h-272v-476h-176v476h-273zM954 831v639h168l287 -440l287 440h168v-639h-176v332l-209 -332h-133l-218 336v-336h-174z" />
<glyph unicode="&#x25fc;" horiz-adv-x="952" d="M0 0v952h952v-952h-952z" />
</font>
</defs>
</svg>
