<svg version="1.1" id="Layer_1" xmlns="http://www.w3.org/2000/svg" xmlns:xlink="http://www.w3.org/1999/xlink" x="0px" y="0px" viewBox="0 0 32 32" style="enable-background:new 0 0 32 32;" xml:space="preserve"><style type="text/css">.st0{fill:#FF007F;} .st1{fill:#FFFFFF;}</style><g><g><circle class="st0" cx="16" cy="16" r="15.5"/></g><polygon class="st1" points="16,7.6 11.5,3.1 8.7,5.9 13.2,10.4 8.7,14.9 11.5,17.7 16,13.2 20.5,17.7 23.3,14.9 18.8,10.4 23.3,5.9 20.5,3.1"/><g><g><rect x="8.4" y="18.1" class="st1" width="2.1" height="10.5"/></g><g><polygon class="st1" points="13.1,28.7 11.6,27.2 15.1,23.5 11.6,19.4 13.2,18 17.9,23.5"/></g><g><path class="st1" d="M23.2,28.6l-4.7-5l4.7-5.5l4.7,5.5L23.2,28.6z M21.6,23.5l1.5,1.7l1.5-1.7l-1.5-1.8L21.6,23.5z"/></g></g></g></svg>